# xmcd
#
# Track frame offsets: 
#        150
#        11537
#        23549
#        34618
#        46637
#        56837
#        67699
#        79128
#        90990
#        101962
#        114181
#        124738
#        135323
#        146305
#        157074
#        168373
#        180123
#        190723
#        203928
#        215110
#
# Disc length: 3007 seconds
#
# Revision: 5
# Processed by: cddbd v1.5.2PL0 Copyright (c) Steve Scherf et al.
# Submitted via: ExactAudioCopyFreeDBPlugin 1.0
#
DISCID=f80bbd14
DTITLE=Robert Johnson - The Complete Recordings:  The Centennial Colle
DTITLE=ction
DYEAR=2011
DGENRE=Blues
TTITLE0=Stones In My Passway
TTITLE1=I'm A Steady Rollin' Man
TTITLE2=From Four Until Late
TTITLE3=Hell Hound On My Trail
TTITLE4=Little Queen Of Spades
TTITLE5=Malted Milk
TTITLE6=Drunken Hearted Man
TTITLE7=Me And The Devil Blues
TTITLE8=Stop Breakin' Down Blues
TTITLE9=Traveling Riverside Blues
TTITLE10=Honeymoon Blues
TTITLE11=Love In Vain Blues
TTITLE12=Milkcow's Calf Blues
TTITLE13=Little Queen Of Spades (alternate)
TTITLE14=Drunken Hearted Man (alternate)
TTITLE15=Me And The Devil Blues (alternate)
TTITLE16=Stop Breakin' Down Blues (alternate)
TTITLE17=Traveling Riverside Blues (alternate)
TTITLE18=Love In Vain Blues (alternate)
TTITLE19=Milkcow's Calf Blues (alternate)
EXTD=YEAR: 1937
EXTT0=
EXTT1=
EXTT2=
EXTT3=
EXTT4=
EXTT5=
EXTT6=
EXTT7=
EXTT8=
EXTT9=
EXTT10=
EXTT11=
EXTT12=
EXTT13=
EXTT14=
EXTT15=
EXTT16=
EXTT17=
EXTT18=
EXTT19=
PLAYORDER=
